# xmcd CD database file
#
# Track frame offsets:
#	150
#	10940
#	22042
#	35617
#	50940
#	62750
#	75717
#	86912
#	99765
#	116070
#
# Disc length: 1684 seconds
#
# Revision: 2
# Processed by: cddbd v1.4PL0 Copyright (c) Steve Scherf et al.
# Submitted via: CDex 1.50
#
DISCID=8106920a
DTITLE=Barbara Mandrell - I'll Be Your Jukebox Tonight
DYEAR=1988
DGENRE=Country
TTITLE0=I'll Be Your Jukebox Tonight
TTITLE1=Big Big Love
TTITLE2=Mirror Mirror
TTITLE3=Blanket Of Love
TTITLE4=My Train Of Thought
TTITLE5=I Wish That I Could Fall In Love Today
TTITLE6=My Heart Is In The Right Place This Time
TTITLE7=I Dropped Your Name
TTITLE8=If We Fall We Will Fly
TTITLE9=Till It's Love Again
EXTD=YEAR: 1988
EXTT0=
EXTT1=
EXTT2=
EXTT3=
EXTT4=
EXTT5=
EXTT6=
EXTT7=
EXTT8=
EXTT9=
PLAYORDER=
